# xmcd
#
# Track frame offsets: 
#        150
#        21330
#        42269
#        61505
#        83557
#        103984
#        121888
#        144891
#        163162
#        182776
#        202882
#        222927
#        236795
#        256053
#        273142
#        291033
#
# Disc length: 4231 seconds
#
# Revision: 0
# Processed by: cddbd v1.5.2PL0 Copyright (c) Steve Scherf et al.
# Submitted via: ExactAudioCopyFreeDBPlugin 1.0
#
DISCID=db108510
DTITLE=Various Artist - MTV First 1000 Years: R&B
DYEAR=1999
DGENRE=R&B
TTITLE0=h - trghjgf
TTITLE1=Bobby Brown - My Perogative
TTITLE2=R. Kelly - Bump N' Grind
TTITLE3=tyfggh
TTITLE4=Brian McKnight - Anytime
TTITLE5=P.M. Dawn - Set Adrift On Memory Bliss
TTITLE6=Blackstreet - No Diggity
TTITLE7=Tony! Roni! Tone! - If I Had Loot
TTITLE8=Lisa Stansfield - All Around The World
TTITLE9=tygfhfg
TTITLE10=Deborah Cox - Sentimental
TTITLE11=ghfhfghhg
TTITLE12=Johnny Gill - Rub You The Right Way
TTITLE13=Tina Turner - What's Love Got To Do With It
TTITLE14=ghfhg
TTITLE15=gfhgfh
EXTD=
EXTT0=
EXTT1=
EXTT2=
EXTT3=
EXTT4=
EXTT5=
EXTT6=
EXTT7=
EXTT8=
EXTT9=
EXTT10=
EXTT11=
EXTT12=
EXTT13=
EXTT14=
EXTT15=
PLAYORDER=
